<svg width="114" height="32" viewBox="0 0 114 32" fill="none" xmlns="http://www.w3.org/2000/svg">
<path d="M13.0023 0.864864H20.8651L23.7203 10.3351L26.6195 0.864864H34.4823L29.2111 15.5243L31.4514 21.7946L38.1722 0.864864H47.4846L35.7123 31.5676H28.2887L23.7203 20.5838L19.1959 31.5676H11.7723L0 0.864864H9.2685L16.0332 21.7946L18.1856 15.5243L13.0023 0.864864Z" fill="#92CE64"/>
<path d="M45.0309 24.6919C45.0309 23.164 45.4555 21.8234 46.3047 20.6703C47.154 19.4883 48.3254 18.5658 49.8189 17.9027C51.3417 17.2396 53.0694 16.9081 55.0022 16.9081C55.91 16.9081 56.7593 16.9802 57.5499 17.1243C58.3699 17.2685 59.0727 17.4847 59.6584 17.773V17.0811C59.6584 16.0144 59.3363 15.2216 58.692 14.7027C58.0771 14.1838 57.0667 13.9243 55.6611 13.9243C54.3726 13.9243 53.1573 14.1405 52.0152 14.573C50.9024 14.9766 49.731 15.582 48.5011 16.3892L46.0851 11.2865C47.6372 10.3063 49.2625 9.58558 50.961 9.12432C52.6887 8.63423 54.5337 8.38919 56.4957 8.38919C60.1562 8.38919 62.9822 9.21081 64.9735 10.8541C66.9941 12.4685 68.0045 14.8757 68.0045 18.0757V22.4865C68.0045 23.2649 68.1216 23.8126 68.3559 24.1297C68.5901 24.418 69.0001 24.591 69.5858 24.6486V31.5676C68.9123 31.7117 68.268 31.8126 67.653 31.8703C67.0674 31.9568 66.5402 32 66.0717 32C64.5782 32 63.4361 31.7405 62.6454 31.2216C61.884 30.6739 61.3862 29.8811 61.1519 28.8432L60.9762 28.0216C59.9513 29.3189 58.7652 30.3135 57.4182 31.0054C56.0711 31.6685 54.6361 32 53.1134 32C51.5906 32 50.2142 31.6829 48.9843 31.0486C47.7543 30.4144 46.7879 29.5496 46.0851 28.4541C45.3823 27.3297 45.0309 26.0757 45.0309 24.6919ZM58.5602 25.2541C58.8824 25.0234 59.1459 24.7784 59.3509 24.5189C59.5559 24.2306 59.6584 23.9423 59.6584 23.6541V21.9676C59.1899 21.7946 58.6481 21.6504 58.0331 21.5351C57.4474 21.4198 56.9203 21.3622 56.4518 21.3622C55.4561 21.3622 54.6069 21.6072 53.904 22.0973C53.2305 22.5874 52.8937 23.2072 52.8937 23.9568C52.8937 24.3604 53.0109 24.7351 53.2451 25.0811C53.4794 25.3982 53.8015 25.6577 54.2115 25.8595C54.6215 26.0324 55.0901 26.1189 55.6172 26.1189C56.115 26.1189 56.6275 26.0468 57.1546 25.9027C57.711 25.7297 58.1796 25.5135 58.5602 25.2541Z" fill="#92CE64"/>
<path d="M72.4249 0H80.7709V22.5297C80.7709 23.3658 80.9467 24.0144 81.2981 24.4757C81.6788 24.9081 82.2205 25.1243 82.9233 25.1243C83.2748 25.1243 83.6555 25.0667 84.0654 24.9514C84.4754 24.836 84.8561 24.6775 85.2075 24.4757L86.2618 30.5297C85.2661 30.991 84.1386 31.3514 82.8794 31.6108C81.6495 31.8703 80.4781 32 79.3653 32C77.1397 32 75.4265 31.4378 74.2259 30.3135C73.0252 29.1604 72.4249 27.5315 72.4249 25.427V0Z" fill="#92CE64"/>
<path d="M86.9852 20.1514C86.9852 17.9027 87.4098 15.8991 88.259 14.1405C89.1376 12.3532 90.3382 10.955 91.861 9.94595C93.3838 8.90811 95.1262 8.38919 97.0883 8.38919C98.5818 8.38919 99.9581 8.73513 101.217 9.42703C102.477 10.0901 103.428 11.0126 104.073 12.1946V0H112.419V22.4865C112.419 23.2649 112.536 23.8126 112.77 24.1297C113.004 24.418 113.414 24.591 114 24.6486V31.5676C112.565 31.8559 111.394 32 110.486 32C109.08 32 107.967 31.7405 107.147 31.2216C106.327 30.7027 105.8 29.9099 105.566 28.8432L105.39 28.0216C104.6 29.4054 103.531 30.4144 102.184 31.0486C100.837 31.6829 99.4017 32 97.879 32C96.2976 32 94.8334 31.7117 93.4863 31.1351C92.1685 30.5586 91.0118 29.7514 90.0161 28.7135C89.0497 27.6468 88.303 26.3928 87.7759 24.9514C87.2487 23.4811 86.9852 21.8811 86.9852 20.1514ZM104.117 22.7459V18.6811C103.853 18.018 103.487 17.4414 103.018 16.9513C102.579 16.4324 102.081 16.0288 101.525 15.7405C100.968 15.4523 100.397 15.3081 99.8117 15.3081C99.1967 15.3081 98.6257 15.4378 98.0986 15.6973C97.6008 15.9568 97.1615 16.3171 96.7808 16.7784C96.4001 17.2396 96.1073 17.773 95.9023 18.3784C95.6973 18.9838 95.5948 19.6324 95.5948 20.3243C95.5948 21.045 95.6973 21.6937 95.9023 22.2703C96.1365 22.8468 96.4587 23.3514 96.8686 23.7838C97.2786 24.1874 97.7618 24.5045 98.3182 24.7351C98.8746 24.9658 99.4896 25.0811 100.163 25.0811C100.573 25.0811 100.954 25.0378 101.305 24.9514C101.657 24.836 101.993 24.6919 102.316 24.5189C102.638 24.3171 102.945 24.0721 103.238 23.7838C103.56 23.4667 103.853 23.1207 104.117 22.7459Z" fill="#92CE64"/>
</svg>
